<svg xmlns="http://www.w3.org/2000/svg" viewBox="0 0 42.27 48.44"><defs><style>.cls-1{isolation:isolate;}.cls-2{mix-blend-mode:multiply;}.cls-10,.cls-11,.cls-12,.cls-13,.cls-14,.cls-15,.cls-16,.cls-17,.cls-18,.cls-19,.cls-20,.cls-21,.cls-22,.cls-23,.cls-24,.cls-25,.cls-26,.cls-27,.cls-28,.cls-29,.cls-3,.cls-30,.cls-31,.cls-32,.cls-33,.cls-34,.cls-35,.cls-36,.cls-37,.cls-38,.cls-39,.cls-4,.cls-40,.cls-41,.cls-42,.cls-43,.cls-44,.cls-45,.cls-46,.cls-47,.cls-48,.cls-49,.cls-5,.cls-50,.cls-51,.cls-52,.cls-53,.cls-54,.cls-6,.cls-7,.cls-8,.cls-9{fill:#e5e5e5;}.cls-3{opacity:0;}.cls-4{opacity:0.02;}.cls-5{opacity:0.04;}.cls-6{opacity:0.06;}.cls-7{opacity:0.08;}.cls-8{opacity:0.1;}.cls-9{opacity:0.12;}.cls-10{opacity:0.14;}.cls-11{opacity:0.16;}.cls-12{opacity:0.18;}.cls-13{opacity:0.2;}.cls-14{opacity:0.22;}.cls-15{opacity:0.24;}.cls-16{opacity:0.25;}.cls-17{opacity:0.27;}.cls-18{opacity:0.29;}.cls-19{opacity:0.31;}.cls-20{opacity:0.33;}.cls-21{opacity:0.35;}.cls-22{opacity:0.37;}.cls-23{opacity:0.39;}.cls-24{opacity:0.41;}.cls-25{opacity:0.43;}.cls-26{opacity:0.45;}.cls-27{opacity:0.47;}.cls-28{opacity:0.49;}.cls-29{opacity:0.51;}.cls-30{opacity:0.53;}.cls-31{opacity:0.55;}.cls-32{opacity:0.57;}.cls-33{opacity:0.59;}.cls-34{opacity:0.61;}.cls-35{opacity:0.63;}.cls-36{opacity:0.65;}.cls-37{opacity:0.67;}.cls-38{opacity:0.69;}.cls-39{opacity:0.71;}.cls-40{opacity:0.73;}.cls-41{opacity:0.75;}.cls-42{opacity:0.76;}.cls-43{opacity:0.78;}.cls-44{opacity:0.8;}.cls-45{opacity:0.82;}.cls-46{opacity:0.84;}.cls-47{opacity:0.86;}.cls-48{opacity:0.88;}.cls-49{opacity:0.9;}.cls-50{opacity:0.92;}.cls-51{opacity:0.94;}.cls-52{opacity:0.96;}.cls-53{opacity:0.98;}.cls-55{fill:#f6f6f6;}</style></defs><title>Recurso 33</title><g class="cls-1"><g id="Capa_2" data-name="Capa 2"><g id="panta-4"><g class="cls-2"><path class="cls-3" d="M37.2,30.53,20.45,47.28a4,4,0,0,1-2.8,1.16h0a4,4,0,0,1-2.81-6.76L26,30.53a4,4,0,0,0,0-5.61L14.84,13.77A4,4,0,0,1,17.65,7h0a3.94,3.94,0,0,1,2.8,1.16L37.2,24.92A4,4,0,0,1,37.2,30.53Z"/><path class="cls-4" d="M17.65,48.39s0,0,0,0a3.9,3.9,0,0,1-2.74-6.66L26,30.56a4,4,0,0,0,0-5.67L14.88,13.74a3.9,3.9,0,0,1,2.74-6.67,0,0,0,0,1,0,0A3.92,3.92,0,0,1,20.41,8.2L37.17,25a3.9,3.9,0,0,1,0,5.53L20.41,47.25A3.91,3.91,0,0,1,17.65,48.39Z"/><path class="cls-5" d="M17.65,48.35a.06.06,0,0,1-.06,0,3.84,3.84,0,0,1-2.68-6.57L26.06,30.59a4.06,4.06,0,0,0,0-5.73L14.91,13.71a3.84,3.84,0,0,1,2.68-6.57.06.06,0,0,1,.06,0,3.88,3.88,0,0,1,2.73,1.13L37.14,25a3.87,3.87,0,0,1,0,5.47L20.38,47.21A3.84,3.84,0,0,1,17.65,48.35Z"/><path class="cls-6" d="M17.65,48.3a.08.08,0,0,1-.09-.06,3.78,3.78,0,0,1-2.62-6.46L26.09,30.62a4.07,4.07,0,0,0,0-5.79L14.94,13.67A3.78,3.78,0,0,1,17.56,7.2a.09.09,0,0,1,.09,0,3.82,3.82,0,0,1,2.7,1.12L37.11,25a3.83,3.83,0,0,1,0,5.41L20.35,47.18A3.82,3.82,0,0,1,17.65,48.3Z"/><path class="cls-7" d="M17.65,48.26a.13.13,0,0,1-.12-.08A3.73,3.73,0,0,1,15,41.81L26.13,30.66a4.15,4.15,0,0,0,0-5.87L15,13.64a3.73,3.73,0,0,1,2.56-6.37.13.13,0,0,1,.12-.08A3.78,3.78,0,0,1,20.32,8.3L37.07,25.05a3.77,3.77,0,0,1,0,5.34L20.32,47.15A3.78,3.78,0,0,1,17.65,48.26Z"/><path class="cls-8" d="M17.65,48.21a.15.15,0,0,1-.15-.1A3.66,3.66,0,0,1,15,41.84L26.16,30.69a4.19,4.19,0,0,0,0-5.93L15,13.61A3.66,3.66,0,0,1,17.5,7.34a.15.15,0,0,1,.15-.1,3.73,3.73,0,0,1,2.63,1.09L37,25.09a3.72,3.72,0,0,1,0,5.27L20.28,47.12A3.73,3.73,0,0,1,17.65,48.21Z"/><path class="cls-9" d="M17.65,48.16a.18.18,0,0,1-.18-.11A3.61,3.61,0,0,1,15,41.87L26.19,30.72a4.22,4.22,0,0,0,0-6L15,13.57A3.6,3.6,0,0,1,17.47,7.4a.19.19,0,0,1,.18-.12,3.69,3.69,0,0,1,2.6,1.08L37,25.12a3.68,3.68,0,0,1,0,5.21L20.25,47.08A3.65,3.65,0,0,1,17.65,48.16Z"/><path class="cls-10" d="M17.65,48.12a.22.22,0,0,1-.21-.14,3.54,3.54,0,0,1-2.37-6.07L26.22,30.75a4.27,4.27,0,0,0,0-6.06L15.07,13.54a3.54,3.54,0,0,1,2.37-6.07.22.22,0,0,1,.21-.14A3.61,3.61,0,0,1,20.22,8.4L37,25.15a3.65,3.65,0,0,1,0,5.15L20.22,47.05A3.65,3.65,0,0,1,17.65,48.12Z"/><path class="cls-11" d="M17.65,48.07a.25.25,0,0,1-.24-.15,3.49,3.49,0,0,1-2.31-6L26.26,30.79a4.34,4.34,0,0,0,0-6.13L15.1,13.51a3.49,3.49,0,0,1,2.31-6,.25.25,0,0,1,.24-.15,3.58,3.58,0,0,1,2.54,1L36.94,25.18a3.58,3.58,0,0,1,0,5.08L20.19,47A3.62,3.62,0,0,1,17.65,48.07Z"/><path class="cls-12" d="M17.65,48a.28.28,0,0,1-.27-.18A3.42,3.42,0,0,1,15.14,42L26.29,30.82a4.38,4.38,0,0,0,0-6.19L15.14,13.48A3.42,3.42,0,0,1,17.38,7.6a.28.28,0,0,1,.27-.18,3.54,3.54,0,0,1,2.5,1L36.91,25.22a3.53,3.53,0,0,1,0,5L20.15,47A3.54,3.54,0,0,1,17.65,48Z"/><path class="cls-13" d="M17.65,48a.31.31,0,0,1-.3-.2A3.36,3.36,0,0,1,15.17,42L26.32,30.85a4.41,4.41,0,0,0,0-6.25L15.17,13.44a3.36,3.36,0,0,1,2.18-5.78.31.31,0,0,1,.3-.19,3.53,3.53,0,0,1,2.47,1L36.88,25.25a3.51,3.51,0,0,1,0,4.95L20.12,47A3.5,3.5,0,0,1,17.65,48Z"/><path class="cls-14" d="M17.65,47.93a.36.36,0,0,1-.33-.21A3.31,3.31,0,0,1,15.2,42L26.35,30.88a4.46,4.46,0,0,0,0-6.32L15.2,13.41a3.31,3.31,0,0,1,2.12-5.68.35.35,0,0,1,.33-.22,3.46,3.46,0,0,1,2.44,1L36.85,25.28a3.48,3.48,0,0,1,0,4.89L20.09,46.92A3.45,3.45,0,0,1,17.65,47.93Z"/><path class="cls-15" d="M17.65,47.89a.39.39,0,0,1-.36-.24,3.24,3.24,0,0,1-2-5.58L26.39,30.92a4.53,4.53,0,0,0,0-6.39L15.23,13.38a3.25,3.25,0,0,1,2.06-5.59.38.38,0,0,1,.36-.23,3.41,3.41,0,0,1,2.41,1L36.81,25.31a3.41,3.41,0,0,1,0,4.82L20.06,46.89A3.41,3.41,0,0,1,17.65,47.89Z"/><path class="cls-16" d="M17.65,47.84a.4.4,0,0,1-.38-.25,3.19,3.19,0,0,1-2-5.49L26.42,31a4.56,4.56,0,0,0,0-6.45L15.27,13.35a3.19,3.19,0,0,1,2-5.49.39.39,0,0,1,.38-.25,3.34,3.34,0,0,1,2.37,1L36.78,25.35a3.36,3.36,0,0,1,0,4.75L20,46.86A3.34,3.34,0,0,1,17.65,47.84Z"/><path class="cls-17" d="M17.65,47.8a.43.43,0,0,1-.41-.28,3.13,3.13,0,0,1-1.94-5.39L26.45,31a4.6,4.6,0,0,0,0-6.51L15.3,13.31a3.12,3.12,0,0,1,1.94-5.38.42.42,0,0,1,.41-.28,3.32,3.32,0,0,1,2.34,1L36.75,25.38a3.33,3.33,0,0,1,0,4.69L20,46.82A3.28,3.28,0,0,1,17.65,47.8Z"/><path class="cls-18" d="M17.65,47.75a.46.46,0,0,1-.44-.29,3.07,3.07,0,0,1-1.88-5.29L26.49,31a4.67,4.67,0,0,0,0-6.58L15.33,13.28A3.07,3.07,0,0,1,17.21,8a.45.45,0,0,1,.44-.29,3.26,3.26,0,0,1,2.31,1L36.71,25.41a3.27,3.27,0,0,1,0,4.63L20,46.79A3.26,3.26,0,0,1,17.65,47.75Z"/><path class="cls-19" d="M17.65,47.7a.49.49,0,0,1-.47-.31,3,3,0,0,1-1.81-5.19L26.52,31.05a4.71,4.71,0,0,0,0-6.65L15.37,13.25a3,3,0,0,1,1.81-5.19.49.49,0,0,1,.47-.32,3.23,3.23,0,0,1,2.28.95L36.68,25.44a3.22,3.22,0,0,1,0,4.56L19.93,46.76A3.26,3.26,0,0,1,17.65,47.7Z"/><path class="cls-20" d="M17.65,47.66a.52.52,0,0,1-.5-.33,3,3,0,0,1-1.75-5.1L26.55,31.08a4.75,4.75,0,0,0,0-6.71L15.4,13.22a3,3,0,0,1,1.75-5.1.52.52,0,0,1,.5-.33,3.18,3.18,0,0,1,2.24.93L36.65,25.48a3.17,3.17,0,0,1,0,4.49L19.89,46.73A3.18,3.18,0,0,1,17.65,47.66Z"/><path class="cls-21" d="M17.65,47.61a.54.54,0,0,1-.53-.35,2.9,2.9,0,0,1-1.69-5L26.58,31.11a4.79,4.79,0,0,0,0-6.77L15.43,13.18a2.89,2.89,0,0,1,1.69-5,.54.54,0,0,1,.53-.35,3.17,3.17,0,0,1,2.21.91L36.62,25.51a3.14,3.14,0,0,1,0,4.43L19.86,46.69A3.12,3.12,0,0,1,17.65,47.61Z"/><path class="cls-22" d="M17.65,47.56a.57.57,0,0,1-.56-.37,2.83,2.83,0,0,1-1.63-4.89L26.62,31.14a4.85,4.85,0,0,0,0-6.84L15.46,13.15a2.84,2.84,0,0,1,1.63-4.9.59.59,0,0,1,.56-.37,3.1,3.1,0,0,1,2.18.91L36.58,25.54a3.08,3.08,0,0,1,0,4.37L19.83,46.66A3.09,3.09,0,0,1,17.65,47.56Z"/><path class="cls-23" d="M17.65,47.52a.61.61,0,0,1-.59-.39,2.78,2.78,0,0,1-1.56-4.8L26.65,31.18a4.9,4.9,0,0,0,0-6.91L15.5,13.12a2.78,2.78,0,0,1,1.56-4.8.61.61,0,0,1,.59-.39,3,3,0,0,1,2.14.89L36.55,25.57a3,3,0,0,1,0,4.3L19.79,46.63A3,3,0,0,1,17.65,47.52Z"/><path class="cls-24" d="M17.65,47.47a.63.63,0,0,1-.62-.41,2.72,2.72,0,0,1-1.5-4.7L26.68,31.21a4.94,4.94,0,0,0,0-7L15.53,13.09A2.73,2.73,0,0,1,17,8.38.64.64,0,0,1,17.65,8a3,3,0,0,1,2.11.88L36.52,25.61a3,3,0,0,1,0,4.23L19.76,46.6A3,3,0,0,1,17.65,47.47Z"/><path class="cls-25" d="M17.65,47.43A.69.69,0,0,1,17,47a2.67,2.67,0,0,1-1.44-4.61L26.71,31.24a5,5,0,0,0,0-7L15.56,13.05A2.66,2.66,0,0,1,17,8.45.69.69,0,0,1,17.65,8a2.94,2.94,0,0,1,2.08.86L36.49,25.64a3,3,0,0,1,0,4.17L19.73,46.56A2.91,2.91,0,0,1,17.65,47.43Z"/><path class="cls-26" d="M17.65,47.38a.71.71,0,0,1-.68-.45,2.6,2.6,0,0,1-1.38-4.5L26.75,31.27a5,5,0,0,0,0-7.1L15.59,13A2.6,2.6,0,0,1,17,8.52a.71.71,0,0,1,.68-.45,2.9,2.9,0,0,1,2.05.85L36.45,25.67a2.9,2.9,0,0,1,0,4.11L19.7,46.53A2.88,2.88,0,0,1,17.65,47.38Z"/><path class="cls-27" d="M17.65,47.33a.74.74,0,0,1-.71-.46,2.55,2.55,0,0,1-1.31-4.41L26.78,31.31a5.07,5.07,0,0,0,0-7.17L15.63,13a2.55,2.55,0,0,1,1.31-4.41.75.75,0,0,1,.71-.47,2.86,2.86,0,0,1,2,.84L36.42,25.7a2.85,2.85,0,0,1,0,4L19.66,46.5A2.85,2.85,0,0,1,17.65,47.33Z"/><path class="cls-28" d="M17.65,47.29a.76.76,0,0,1-.73-.49,2.49,2.49,0,0,1-1.26-4.31L26.81,31.34a5.11,5.11,0,0,0,0-7.23L15.66,13a2.49,2.49,0,0,1,1.26-4.31.76.76,0,0,1,.73-.49,2.82,2.82,0,0,1,2,.82L36.39,25.74a2.8,2.8,0,0,1,0,4L19.63,46.47A2.84,2.84,0,0,1,17.65,47.29Z"/><path class="cls-29" d="M17.65,47.24a.79.79,0,0,1-.76-.5,2.44,2.44,0,0,1-1.2-4.22L26.84,31.37a5.14,5.14,0,0,0,0-7.29L15.69,12.92a2.44,2.44,0,0,1,1.2-4.21.79.79,0,0,1,.76-.5,2.79,2.79,0,0,1,2,.8L36.36,25.77a2.76,2.76,0,0,1,0,3.91L19.6,46.43A2.76,2.76,0,0,1,17.65,47.24Z"/><path class="cls-30" d="M17.65,47.2a.81.81,0,0,1-.79-.53,2.38,2.38,0,0,1-1.14-4.11L26.88,31.4a5.21,5.21,0,0,0,0-7.36L15.72,12.89a2.38,2.38,0,0,1,1.14-4.11.81.81,0,0,1,.79-.53,2.74,2.74,0,0,1,1.92.8L36.32,25.8a2.71,2.71,0,0,1,0,3.85L19.57,46.4A2.72,2.72,0,0,1,17.65,47.2Z"/><path class="cls-31" d="M17.65,47.15a.85.85,0,0,1-.82-.55,2.32,2.32,0,0,1-1.07-4L26.91,31.44a5.26,5.26,0,0,0,0-7.43L15.76,12.86a2.33,2.33,0,0,1,1.07-4,.86.86,0,0,1,.82-.54,2.67,2.67,0,0,1,1.88.78L36.29,25.83a2.68,2.68,0,0,1,0,3.78L19.53,46.37A2.65,2.65,0,0,1,17.65,47.15Z"/><path class="cls-32" d="M17.65,47.1a.88.88,0,0,1-.85-.56,2.27,2.27,0,0,1-1-3.92L26.94,31.47a5.29,5.29,0,0,0,0-7.49L15.79,12.83a2.27,2.27,0,0,1,1-3.92.88.88,0,0,1,.85-.57,2.63,2.63,0,0,1,1.85.77L36.26,25.87a2.63,2.63,0,0,1,0,3.71L19.5,46.34A2.62,2.62,0,0,1,17.65,47.1Z"/><path class="cls-33" d="M17.65,47.06a.91.91,0,0,1-.88-.59,2.21,2.21,0,0,1-.95-3.82L27,31.5A5.33,5.33,0,0,0,27,24L15.82,12.79A2.22,2.22,0,0,1,16.77,9a.91.91,0,0,1,.88-.58,2.55,2.55,0,0,1,1.82.76L36.23,25.9a2.6,2.6,0,0,1,0,3.65L19.47,46.3A2.57,2.57,0,0,1,17.65,47.06Z"/><path class="cls-34" d="M17.65,47a1,1,0,0,1-.91-.6,2.16,2.16,0,0,1-.89-3.72L27,31.53a5.4,5.4,0,0,0,0-7.62L15.85,12.76A2.16,2.16,0,0,1,16.74,9a1,1,0,0,1,.91-.6,2.54,2.54,0,0,1,1.79.74L36.19,25.93a2.54,2.54,0,0,1,0,3.59L19.44,46.27A2.52,2.52,0,0,1,17.65,47Z"/><path class="cls-35" d="M17.65,47a1,1,0,0,1-.94-.63,2.1,2.1,0,0,1-.82-3.62L27,31.57a5.44,5.44,0,0,0,0-7.69L15.89,12.73c-1.36-1.36-.57-3.44.82-3.62a1,1,0,0,1,.94-.63,2.5,2.5,0,0,1,1.75.73L36.16,26a2.49,2.49,0,0,1,0,3.52L19.4,46.24A2.44,2.44,0,0,1,17.65,47Z"/><path class="cls-36" d="M17.65,46.92a1,1,0,0,1-1-.64,2.06,2.06,0,0,1-.76-3.53L27.07,31.6a5.48,5.48,0,0,0,0-7.75L15.92,12.7a2.06,2.06,0,0,1,.76-3.53,1,1,0,0,1,1-.64,2.47,2.47,0,0,1,1.72.71L36.13,26a2.44,2.44,0,0,1,0,3.45L19.37,46.21A2.47,2.47,0,0,1,17.65,46.92Z"/><path class="cls-37" d="M17.65,46.87a1,1,0,0,1-1-.66,2,2,0,0,1-.7-3.43L27.1,31.63a5.52,5.52,0,0,0,0-7.81L16,12.66a2,2,0,0,1,.7-3.42,1,1,0,0,1,1-.67,2.4,2.4,0,0,1,1.69.71L36.1,26a2.41,2.41,0,0,1,0,3.39L19.34,46.17A2.39,2.39,0,0,1,17.65,46.87Z"/><path class="cls-38" d="M17.65,46.83a1.09,1.09,0,0,1-1-.68A2,2,0,0,1,16,42.82L27.14,31.66a5.58,5.58,0,0,0,0-7.88L16,12.63a2,2,0,0,1,.64-3.33,1.09,1.09,0,0,1,1-.68,2.36,2.36,0,0,1,1.66.69L36.06,26.06a2.35,2.35,0,0,1,0,3.33L19.31,46.14A2.37,2.37,0,0,1,17.65,46.83Z"/><path class="cls-39" d="M17.65,46.78a1.11,1.11,0,0,1-1.06-.7A1.9,1.9,0,0,1,16,42.85L27.17,31.7a5.63,5.63,0,0,0,0-7.95L16,12.6a1.9,1.9,0,0,1,.57-3.23,1.11,1.11,0,0,1,1.06-.7,2.3,2.3,0,0,1,1.62.67L36,26.1a2.29,2.29,0,0,1,0,3.25L19.27,46.11A2.29,2.29,0,0,1,17.65,46.78Z"/><path class="cls-40" d="M17.65,46.74A1.14,1.14,0,0,1,16.56,46a1.85,1.85,0,0,1-.51-3.13L27.2,31.73a5.67,5.67,0,0,0,0-8L16.05,12.57a1.86,1.86,0,0,1,.51-3.14,1.15,1.15,0,0,1,1.09-.72,2.27,2.27,0,0,1,1.59.66L36,26.13a2.26,2.26,0,0,1,0,3.19L19.24,46.07A2.22,2.22,0,0,1,17.65,46.74Z"/><path class="cls-41" d="M17.65,46.69A1.16,1.16,0,0,1,16.54,46a1.79,1.79,0,0,1-.46-3L27.23,31.76a5.7,5.7,0,0,0,0-8.07L16.08,12.53a1.79,1.79,0,0,1,.46-3,1.16,1.16,0,0,1,1.11-.74,2.19,2.19,0,0,1,1.56.65L36,26.16a2.22,2.22,0,0,1,0,3.13L19.21,46A2.2,2.2,0,0,1,17.65,46.69Z"/><path class="cls-42" d="M17.65,46.64a1.18,1.18,0,0,1-1.14-.76,1.75,1.75,0,0,1-.4-2.93L27.27,31.8a5.78,5.78,0,0,0,0-8.15L16.11,12.5a1.75,1.75,0,0,1,.4-2.93,1.18,1.18,0,0,1,1.14-.77,2.17,2.17,0,0,1,1.53.64L35.93,26.19a2.17,2.17,0,0,1,0,3.07L19.18,46A2.16,2.16,0,0,1,17.65,46.64Z"/><path class="cls-43" d="M17.65,46.6a1.21,1.21,0,0,1-1.17-.78A1.71,1.71,0,0,1,16.15,43L27.3,31.83a5.82,5.82,0,0,0,0-8.21L16.15,12.47a1.71,1.71,0,0,1,.33-2.84,1.21,1.21,0,0,1,1.17-.78,2.14,2.14,0,0,1,1.49.62L35.9,26.23a2.11,2.11,0,0,1,0,3L19.14,46A2.1,2.1,0,0,1,17.65,46.6Z"/><path class="cls-44" d="M17.65,46.55a1.25,1.25,0,0,1-1.2-.8A1.66,1.66,0,0,1,16.18,43L27.33,31.86a5.85,5.85,0,0,0,0-8.27L16.18,12.43a1.66,1.66,0,0,1,.27-2.73,1.25,1.25,0,0,1,1.2-.8,2.11,2.11,0,0,1,1.46.6L35.87,26.26a2.07,2.07,0,0,1,0,2.93L19.11,45.94A2,2,0,0,1,17.65,46.55Z"/><path class="cls-45" d="M17.65,46.51a1.28,1.28,0,0,1-1.23-.82,1.62,1.62,0,0,1-.21-2.64L27.36,31.89a5.9,5.9,0,0,0,0-8.34L16.21,12.4a1.62,1.62,0,0,1,.21-2.64,1.28,1.28,0,0,1,1.23-.82,2,2,0,0,1,1.43.6L35.84,26.29a2,2,0,0,1,0,2.87L19.08,45.91A2,2,0,0,1,17.65,46.51Z"/><path class="cls-46" d="M17.65,46.46a1.32,1.32,0,0,1-1.26-.84,1.58,1.58,0,0,1-.15-2.54L27.4,31.93a6,6,0,0,0,0-8.41L16.24,12.37a1.58,1.58,0,0,1,.15-2.54A1.32,1.32,0,0,1,17.65,9a2,2,0,0,1,1.4.58L35.8,26.32a2,2,0,0,1,0,2.8L19.05,45.88A2,2,0,0,1,17.65,46.46Z"/><path class="cls-47" d="M17.65,46.41a1.35,1.35,0,0,1-1.29-.86,1.54,1.54,0,0,1-.08-2.44L27.43,32a6,6,0,0,0,0-8.47L16.28,12.34a1.55,1.55,0,0,1,.08-2.45A1.35,1.35,0,0,1,17.65,9,1.93,1.93,0,0,1,19,9.6L35.77,26.36a1.92,1.92,0,0,1,0,2.73L19,45.85A1.92,1.92,0,0,1,17.65,46.41Z"/><path class="cls-48" d="M17.65,46.37a1.39,1.39,0,0,1-1.32-.88,1.53,1.53,0,0,1,0-2.35L27.46,32a6,6,0,0,0,0-8.53L16.31,12.3a1.51,1.51,0,0,1,0-2.34,1.38,1.38,0,0,1,1.32-.88A1.9,1.9,0,0,1,19,9.63L35.74,26.39a1.9,1.9,0,0,1,0,2.67L19,45.81A1.87,1.87,0,0,1,17.65,46.37Z"/><path class="cls-49" d="M17.65,46.32a1.41,1.41,0,0,1-1.35-.9,1.49,1.49,0,0,1,0-2.24L27.49,32a6.07,6.07,0,0,0,0-8.6L16.34,12.27a1.5,1.5,0,0,1,0-2.25,1.41,1.41,0,0,1,1.35-.89,1.84,1.84,0,0,1,1.3.54L35.71,26.42a1.87,1.87,0,0,1,0,2.61L19,45.78A1.82,1.82,0,0,1,17.65,46.32Z"/><path class="cls-50" d="M17.65,46.28a1.46,1.46,0,0,1-1.38-.92,1.48,1.48,0,0,1,.11-2.15L27.53,32.06a6.14,6.14,0,0,0,0-8.67L16.37,12.24a1.49,1.49,0,0,1-.1-2.15,1.45,1.45,0,0,1,1.38-.92,1.8,1.8,0,0,1,1.27.53L35.67,26.45a1.8,1.8,0,0,1,0,2.54L18.92,45.75A1.8,1.8,0,0,1,17.65,46.28Z"/><path class="cls-51" d="M17.65,46.23a1.48,1.48,0,0,1-1.41-.94,1.47,1.47,0,0,1,.17-2L27.56,32.09a6.17,6.17,0,0,0,0-8.73L16.41,12.21a1.47,1.47,0,0,1-.17-2.05,1.47,1.47,0,0,1,1.41-.94,1.76,1.76,0,0,1,1.23.51L35.64,26.49a1.75,1.75,0,0,1,0,2.47L18.88,45.72A1.73,1.73,0,0,1,17.65,46.23Z"/><path class="cls-52" d="M17.65,46.18a1.61,1.61,0,0,1-1.44-1,1.56,1.56,0,0,1,.23-2L27.59,32.12a6.21,6.21,0,0,0,0-8.79L16.44,12.17a1.55,1.55,0,0,1-.23-1.95,1.61,1.61,0,0,1,1.44-1,1.76,1.76,0,0,1,1.2.5L35.61,26.52a1.71,1.71,0,0,1,0,2.41L18.85,45.68A1.66,1.66,0,0,1,17.65,46.18Z"/><path class="cls-53" d="M17.65,46.14a1.56,1.56,0,0,1-1.46-1,1.53,1.53,0,0,1,.28-1.85L27.63,32.15a6.28,6.28,0,0,0,0-8.86L16.47,12.14a1.53,1.53,0,0,1-.28-1.85,1.56,1.56,0,0,1,1.46-1,1.68,1.68,0,0,1,1.17.49L35.58,26.55a1.68,1.68,0,0,1,0,2.35L18.82,45.65A1.68,1.68,0,0,1,17.65,46.14Z"/><path class="cls-54" d="M17.65,46.09a1.61,1.61,0,0,1-1.14-2.75L27.66,32.19a6.33,6.33,0,0,0,0-8.93L16.51,12.11a1.61,1.61,0,0,1,1.14-2.75,1.65,1.65,0,0,1,1.14.47L35.54,26.58a1.61,1.61,0,0,1,0,2.28L18.79,45.62A1.63,1.63,0,0,1,17.65,46.09Z"/></g><g class="cls-2"><path class="cls-3" d="M23.53,30.53,6.77,47.28A4,4,0,0,1,4,48.44H4a4,4,0,0,1-2.8-6.76L12.32,30.53a4,4,0,0,0,0-5.61L1.17,13.77A4,4,0,0,1,4,7H4a3.93,3.93,0,0,1,2.8,1.16L23.53,24.92A4,4,0,0,1,23.53,30.53Z"/><path class="cls-4" d="M4,48.39s0,0,0,0A3.9,3.9,0,0,1,1.2,41.71L12.35,30.56a4,4,0,0,0,0-5.67L1.2,13.74A3.91,3.91,0,0,1,3.94,7.07a0,0,0,0,1,0,0A4,4,0,0,1,6.74,8.2L23.5,25a3.92,3.92,0,0,1,0,5.53L6.74,47.25A3.94,3.94,0,0,1,4,48.39Z"/><path class="cls-5" d="M4,48.35s-.05,0-.06,0a3.85,3.85,0,0,1-2.68-6.57L12.39,30.59a4.06,4.06,0,0,0,0-5.73L1.23,13.71A3.85,3.85,0,0,1,3.91,7.14s0,0,.06,0A3.9,3.9,0,0,1,6.71,8.23L23.46,25a3.87,3.87,0,0,1,0,5.47L6.71,47.21A3.87,3.87,0,0,1,4,48.35Z"/><path class="cls-6" d="M4,48.3a.09.09,0,0,1-.09-.06,3.77,3.77,0,0,1-2.61-6.46L12.42,30.62a4.09,4.09,0,0,0,0-5.79L1.27,13.67A3.78,3.78,0,0,1,3.88,7.2a.11.11,0,0,1,.09,0,3.8,3.8,0,0,1,2.7,1.12L23.43,25a3.83,3.83,0,0,1,0,5.41L6.67,47.18A3.8,3.8,0,0,1,4,48.3Z"/><path class="cls-7" d="M4,48.26a.13.13,0,0,1-.12-.08A3.72,3.72,0,0,1,1.3,41.81L12.45,30.66a4.15,4.15,0,0,0,0-5.87L1.3,13.64A3.72,3.72,0,0,1,3.85,7.27.13.13,0,0,1,4,7.19,3.78,3.78,0,0,1,6.64,8.3L23.4,25.05a3.78,3.78,0,0,1,0,5.34L6.64,47.15A3.78,3.78,0,0,1,4,48.26Z"/><path class="cls-8" d="M4,48.21a.16.16,0,0,1-.15-.1,3.66,3.66,0,0,1-2.49-6.27L12.48,30.69a4.19,4.19,0,0,0,0-5.93L1.33,13.61A3.66,3.66,0,0,1,3.82,7.34.16.16,0,0,1,4,7.24,3.73,3.73,0,0,1,6.61,8.33L23.36,25.09a3.72,3.72,0,0,1,0,5.27L6.61,47.12A3.73,3.73,0,0,1,4,48.21Z"/><path class="cls-9" d="M4,48.16a.2.2,0,0,1-.18-.11,3.61,3.61,0,0,1-2.43-6.18L12.52,30.72a4.24,4.24,0,0,0,0-6L1.36,13.57A3.6,3.6,0,0,1,3.79,7.4.2.2,0,0,1,4,7.28a3.67,3.67,0,0,1,2.6,1.08L23.33,25.12a3.68,3.68,0,0,1,0,5.21L6.57,47.08A3.63,3.63,0,0,1,4,48.16Z"/><path class="cls-10" d="M4,48.12A.23.23,0,0,1,3.76,48,3.54,3.54,0,0,1,1.4,41.91L12.55,30.75a4.29,4.29,0,0,0,0-6.06L1.4,13.54A3.54,3.54,0,0,1,3.76,7.47.23.23,0,0,1,4,7.33,3.61,3.61,0,0,1,6.54,8.4L23.3,25.15a3.65,3.65,0,0,1,0,5.15L6.54,47.05A3.65,3.65,0,0,1,4,48.12Z"/><path class="cls-11" d="M4,48.07a.25.25,0,0,1-.23-.15,3.49,3.49,0,0,1-2.31-6L12.58,30.79a4.34,4.34,0,0,0,0-6.13L1.43,13.51a3.49,3.49,0,0,1,2.31-6A.25.25,0,0,1,4,7.38a3.56,3.56,0,0,1,2.54,1L23.27,25.18a3.6,3.6,0,0,1,0,5.08L6.51,47A3.6,3.6,0,0,1,4,48.07Z"/><path class="cls-12" d="M4,48a.28.28,0,0,1-.26-.18A3.42,3.42,0,0,1,1.46,42L12.61,30.82a4.38,4.38,0,0,0,0-6.19L1.46,13.48A3.42,3.42,0,0,1,3.71,7.6.28.28,0,0,1,4,7.42a3.58,3.58,0,0,1,2.51,1L23.23,25.22a3.53,3.53,0,0,1,0,5L6.48,47A3.58,3.58,0,0,1,4,48Z"/><path class="cls-13" d="M4,48a.3.3,0,0,1-.29-.2A3.37,3.37,0,0,1,1.49,42L12.65,30.85a4.43,4.43,0,0,0,0-6.25L1.49,13.44A3.37,3.37,0,0,1,3.68,7.66.29.29,0,0,1,4,7.47a3.5,3.5,0,0,1,2.47,1L23.2,25.25a3.49,3.49,0,0,1,0,4.95L6.44,47A3.46,3.46,0,0,1,4,48Z"/><path class="cls-14" d="M4,47.93a.33.33,0,0,1-.32-.21A3.3,3.3,0,0,1,1.53,42L12.68,30.88a4.48,4.48,0,0,0,0-6.32L1.53,13.41A3.3,3.3,0,0,1,3.65,7.73.32.32,0,0,1,4,7.51a3.46,3.46,0,0,1,2.44,1L23.17,25.28a3.46,3.46,0,0,1,0,4.89L6.41,46.92A3.43,3.43,0,0,1,4,47.93Z"/><path class="cls-15" d="M4,47.89a.37.37,0,0,1-.35-.24,3.24,3.24,0,0,1-2.06-5.58L12.71,30.92a4.53,4.53,0,0,0,0-6.39L1.56,13.38A3.25,3.25,0,0,1,3.62,7.79.36.36,0,0,1,4,7.56a3.41,3.41,0,0,1,2.41,1L23.14,25.31a3.41,3.41,0,0,1,0,4.82L6.38,46.89A3.41,3.41,0,0,1,4,47.89Z"/><path class="cls-16" d="M4,47.84a.4.4,0,0,1-.38-.25,3.19,3.19,0,0,1-2-5.49L12.74,31a4.56,4.56,0,0,0,0-6.45L1.59,13.35a3.19,3.19,0,0,1,2-5.49A.39.39,0,0,1,4,7.61a3.37,3.37,0,0,1,2.38,1L23.1,25.35a3.34,3.34,0,0,1,0,4.75L6.35,46.86A3.37,3.37,0,0,1,4,47.84Z"/><path class="cls-17" d="M4,47.8a.43.43,0,0,1-.41-.28,3.13,3.13,0,0,1-1.94-5.39L12.78,31a4.62,4.62,0,0,0,0-6.51L1.62,13.31A3.13,3.13,0,0,1,3.56,7.93.42.42,0,0,1,4,7.65a3.31,3.31,0,0,1,2.34,1L23.07,25.38a3.31,3.31,0,0,1,0,4.69L6.31,46.82A3.28,3.28,0,0,1,4,47.8Z"/><path class="cls-18" d="M4,47.75a.47.47,0,0,1-.44-.29,3.07,3.07,0,0,1-1.87-5.29L12.81,31a4.65,4.65,0,0,0,0-6.58L1.66,13.28A3.07,3.07,0,0,1,3.53,8,.46.46,0,0,1,4,7.7a3.23,3.23,0,0,1,2.31,1L23,25.41A3.27,3.27,0,0,1,23,30L6.28,46.79A3.23,3.23,0,0,1,4,47.75Z"/><path class="cls-19" d="M4,47.7a.49.49,0,0,1-.47-.31A3,3,0,0,1,1.69,42.2L12.84,31.05a4.7,4.7,0,0,0,0-6.65L1.69,13.25A3,3,0,0,1,3.5,8.06.49.49,0,0,1,4,7.74a3.21,3.21,0,0,1,2.28.95L23,25.44A3.22,3.22,0,0,1,23,30L6.25,46.76A3.24,3.24,0,0,1,4,47.7Z"/><path class="cls-20" d="M4,47.66a.53.53,0,0,1-.5-.33,3,3,0,0,1-1.75-5.1L12.87,31.08a4.73,4.73,0,0,0,0-6.71L1.72,13.22a3,3,0,0,1,1.75-5.1A.53.53,0,0,1,4,7.79a3.22,3.22,0,0,1,2.25.93L23,25.48A3.16,3.16,0,0,1,23,30L6.22,46.73A3.22,3.22,0,0,1,4,47.66Z"/><path class="cls-21" d="M4,47.61a.56.56,0,0,1-.53-.35,2.9,2.9,0,0,1-1.69-5L12.91,31.11a4.79,4.79,0,0,0,0-6.77L1.75,13.18a2.9,2.9,0,0,1,1.69-5A.56.56,0,0,1,4,7.84a3.13,3.13,0,0,1,2.21.91L22.94,25.51a3.14,3.14,0,0,1,0,4.43L6.18,46.69A3.1,3.1,0,0,1,4,47.61Z"/><path class="cls-22" d="M4,47.56a.58.58,0,0,1-.56-.37A2.83,2.83,0,0,1,1.79,42.3L12.94,31.14a4.83,4.83,0,0,0,0-6.84L1.79,13.15a2.84,2.84,0,0,1,1.62-4.9A.6.6,0,0,1,4,7.88a3.08,3.08,0,0,1,2.18.91L22.91,25.54a3.1,3.1,0,0,1,0,4.37L6.15,46.66A3.07,3.07,0,0,1,4,47.56Z"/><path class="cls-23" d="M4,47.52a.59.59,0,0,1-.58-.39,2.78,2.78,0,0,1-1.57-4.8L13,31.18a4.88,4.88,0,0,0,0-6.91L1.82,13.12a2.78,2.78,0,0,1,1.57-4.8A.59.59,0,0,1,4,7.93a3.05,3.05,0,0,1,2.15.89L22.88,25.57a3.05,3.05,0,0,1,0,4.3L6.12,46.63A3,3,0,0,1,4,47.52Z"/><path class="cls-24" d="M4,47.47a.63.63,0,0,1-.61-.41,2.72,2.72,0,0,1-1.51-4.7L13,31.21a4.92,4.92,0,0,0,0-7L1.85,13.09A2.73,2.73,0,0,1,3.36,8.38.64.64,0,0,1,4,8a3,3,0,0,1,2.12.88L22.84,25.61a3,3,0,0,1,0,4.23L6.09,46.6A3,3,0,0,1,4,47.47Z"/><path class="cls-25" d="M4,47.43A.66.66,0,0,1,3.33,47a2.67,2.67,0,0,1-1.45-4.61L13,31.24a5,5,0,0,0,0-7L1.88,13.05a2.67,2.67,0,0,1,1.45-4.6A.66.66,0,0,1,4,8a2.94,2.94,0,0,1,2.08.86L22.81,25.64a3,3,0,0,1,0,4.17L6.05,46.56A2.91,2.91,0,0,1,4,47.43Z"/><path class="cls-26" d="M4,47.38a.69.69,0,0,1-.67-.45,2.6,2.6,0,0,1-1.38-4.5L13.07,31.27a5,5,0,0,0,0-7.1L1.92,13A2.6,2.6,0,0,1,3.3,8.52.69.69,0,0,1,4,8.07a2.87,2.87,0,0,1,2,.85L22.78,25.67a2.92,2.92,0,0,1,0,4.11L6,46.53A2.87,2.87,0,0,1,4,47.38Z"/><path class="cls-27" d="M4,47.33a.73.73,0,0,1-.7-.46A2.55,2.55,0,0,1,2,42.46L13.1,31.31a5.07,5.07,0,0,0,0-7.17L2,13A2.55,2.55,0,0,1,3.27,8.58.73.73,0,0,1,4,8.11,2.89,2.89,0,0,1,6,9L22.75,25.7a2.87,2.87,0,0,1,0,4L6,46.5A2.88,2.88,0,0,1,4,47.33Z"/><path class="cls-28" d="M4,47.29a.76.76,0,0,1-.73-.49A2.49,2.49,0,0,1,2,42.49L13.14,31.34a5.12,5.12,0,0,0,0-7.23L2,13A2.49,2.49,0,0,1,3.24,8.65.76.76,0,0,1,4,8.16,2.86,2.86,0,0,1,6,9L22.71,25.74a2.8,2.8,0,0,1,0,4L6,46.47A2.84,2.84,0,0,1,4,47.29Z"/><path class="cls-29" d="M4,47.24a.79.79,0,0,1-.76-.5A2.44,2.44,0,0,1,2,42.52L13.17,31.37a5.16,5.16,0,0,0,0-7.29L2,12.92a2.44,2.44,0,0,1,1.2-4.21A.79.79,0,0,1,4,8.21,2.77,2.77,0,0,1,5.92,9L22.68,25.77a2.76,2.76,0,0,1,0,3.91L5.92,46.43A2.76,2.76,0,0,1,4,47.24Z"/><path class="cls-30" d="M4,47.2a.83.83,0,0,1-.79-.53,2.38,2.38,0,0,1-1.13-4.11L13.2,31.4a5.21,5.21,0,0,0,0-7.36L2.05,12.89A2.38,2.38,0,0,1,3.18,8.78.83.83,0,0,1,4,8.25a2.72,2.72,0,0,1,1.92.8L22.65,25.8a2.73,2.73,0,0,1,0,3.85L5.89,46.4A2.72,2.72,0,0,1,4,47.2Z"/><path class="cls-31" d="M4,47.15a.86.86,0,0,1-.82-.55,2.32,2.32,0,0,1-1.07-4L13.23,31.44a5.26,5.26,0,0,0,0-7.43L2.08,12.86a2.33,2.33,0,0,1,1.07-4A.87.87,0,0,1,4,8.3a2.67,2.67,0,0,1,1.89.78L22.62,25.83a2.68,2.68,0,0,1,0,3.78L5.86,46.37A2.67,2.67,0,0,1,4,47.15Z"/><path class="cls-32" d="M4,47.1a.89.89,0,0,1-.85-.56,2.27,2.27,0,0,1-1-3.92L13.27,31.47a5.31,5.31,0,0,0,0-7.49L2.11,12.83a2.27,2.27,0,0,1,1-3.92A.9.9,0,0,1,4,8.34a2.67,2.67,0,0,1,1.86.77L22.58,25.87a2.61,2.61,0,0,1,0,3.71L5.83,46.34A2.64,2.64,0,0,1,4,47.1Z"/><path class="cls-33" d="M4,47.06a.93.93,0,0,1-.88-.59,2.21,2.21,0,0,1-.94-3.82L13.3,31.5a5.35,5.35,0,0,0,0-7.55L2.15,12.79A2.21,2.21,0,0,1,3.09,9,.94.94,0,0,1,4,8.39a2.55,2.55,0,0,1,1.82.76L22.55,25.9a2.58,2.58,0,0,1,0,3.65L5.79,46.3A2.53,2.53,0,0,1,4,47.06Z"/><path class="cls-34" d="M4,47a1,1,0,0,1-.91-.6,2.16,2.16,0,0,1-.88-3.72L13.33,31.53a5.4,5.4,0,0,0,0-7.62L2.18,12.76A2.16,2.16,0,0,1,3.06,9,1,1,0,0,1,4,8.44a2.5,2.5,0,0,1,1.79.74L22.52,25.93a2.54,2.54,0,0,1,0,3.59L5.76,46.27A2.52,2.52,0,0,1,4,47Z"/><path class="cls-35" d="M4,47A1,1,0,0,1,3,46.34a2.1,2.1,0,0,1-.82-3.62L13.36,31.57a5.44,5.44,0,0,0,0-7.69L2.21,12.73C.85,11.37,1.64,9.29,3,9.11A1,1,0,0,1,4,8.48a2.52,2.52,0,0,1,1.76.73L22.49,26a2.49,2.49,0,0,1,0,3.52L5.73,46.24A2.48,2.48,0,0,1,4,47Z"/><path class="cls-36" d="M4,46.92a1,1,0,0,1-1-.64,2.06,2.06,0,0,1-.77-3.53L13.4,31.6a5.5,5.5,0,0,0,0-7.75L2.24,12.7A2.06,2.06,0,0,1,3,9.17a1,1,0,0,1,1-.64,2.5,2.5,0,0,1,1.73.71L22.45,26a2.43,2.43,0,0,1,0,3.45L5.7,46.21A2.48,2.48,0,0,1,4,46.92Z"/><path class="cls-37" d="M4,46.87a1,1,0,0,1-1-.66,2,2,0,0,1-.7-3.43L13.43,31.63a5.53,5.53,0,0,0,0-7.81L2.28,12.66A2,2,0,0,1,3,9.24a1,1,0,0,1,1-.67,2.38,2.38,0,0,1,1.69.71L22.42,26a2.39,2.39,0,0,1,0,3.39L5.66,46.17A2.38,2.38,0,0,1,4,46.87Z"/><path class="cls-38" d="M4,46.83a1.06,1.06,0,0,1-1-.68,2,2,0,0,1-.64-3.33L13.46,31.66a5.58,5.58,0,0,0,0-7.88L2.31,12.63A2,2,0,0,1,3,9.3a1.06,1.06,0,0,1,1-.68,2.36,2.36,0,0,1,1.66.69L22.39,26.06a2.37,2.37,0,0,1,0,3.33L5.63,46.14A2.36,2.36,0,0,1,4,46.83Z"/><path class="cls-39" d="M4,46.78a1.1,1.1,0,0,1-1.05-.7,1.9,1.9,0,0,1-.58-3.23L13.49,31.7a5.61,5.61,0,0,0,0-7.95L2.34,12.6a1.9,1.9,0,0,1,.58-3.23A1.1,1.1,0,0,1,4,8.67a2.31,2.31,0,0,1,1.63.67L22.36,26.1a2.31,2.31,0,0,1,0,3.25L5.6,46.11A2.33,2.33,0,0,1,4,46.78Z"/><path class="cls-40" d="M4,46.74A1.12,1.12,0,0,1,2.89,46a1.85,1.85,0,0,1-.52-3.13L13.53,31.73a5.67,5.67,0,0,0,0-8L2.37,12.57a1.86,1.86,0,0,1,.52-3.14A1.13,1.13,0,0,1,4,8.71a2.29,2.29,0,0,1,1.6.66L22.32,26.13a2.26,2.26,0,0,1,0,3.19L5.57,46.07A2.26,2.26,0,0,1,4,46.74Z"/><path class="cls-41" d="M4,46.69A1.16,1.16,0,0,1,2.86,46a1.8,1.8,0,0,1-.45-3L13.56,31.76a5.7,5.7,0,0,0,0-8.07L2.41,12.53a1.79,1.79,0,0,1,.45-3A1.16,1.16,0,0,1,4,8.76a2.19,2.19,0,0,1,1.56.65L22.29,26.16a2.22,2.22,0,0,1,0,3.13L5.53,46A2.17,2.17,0,0,1,4,46.69Z"/><path class="cls-42" d="M4,46.64a1.2,1.2,0,0,1-1.14-.76A1.75,1.75,0,0,1,2.44,43L13.59,31.8a5.76,5.76,0,0,0,0-8.15L2.44,12.5a1.75,1.75,0,0,1,.39-2.93A1.21,1.21,0,0,1,4,8.8a2.15,2.15,0,0,1,1.53.64L22.26,26.19a2.19,2.19,0,0,1,0,3.07L5.5,46A2.14,2.14,0,0,1,4,46.64Z"/><path class="cls-43" d="M4,46.6a1.24,1.24,0,0,1-1.17-.78A1.71,1.71,0,0,1,2.47,43L13.62,31.83a5.8,5.8,0,0,0,0-8.21L2.47,12.47A1.71,1.71,0,0,1,2.8,9.63,1.24,1.24,0,0,1,4,8.85a2.16,2.16,0,0,1,1.5.62L22.22,26.23a2.11,2.11,0,0,1,0,3L5.47,46A2.12,2.12,0,0,1,4,46.6Z"/><path class="cls-44" d="M4,46.55a1.26,1.26,0,0,1-1.2-.8A1.66,1.66,0,0,1,2.5,43L13.66,31.86a5.85,5.85,0,0,0,0-8.27L2.5,12.43A1.66,1.66,0,0,1,2.77,9.7,1.26,1.26,0,0,1,4,8.9a2.12,2.12,0,0,1,1.47.6L22.19,26.26a2.07,2.07,0,0,1,0,2.93L5.43,45.94A2,2,0,0,1,4,46.55Z"/><path class="cls-45" d="M4,46.51a1.3,1.3,0,0,1-1.23-.82,1.62,1.62,0,0,1-.2-2.64L13.69,31.89a5.9,5.9,0,0,0,0-8.34L2.54,12.4a1.62,1.62,0,0,1,.2-2.64A1.3,1.3,0,0,1,4,8.94a2,2,0,0,1,1.43.6L22.16,26.29a2,2,0,0,1,0,2.87L5.4,45.91A2,2,0,0,1,4,46.51Z"/><path class="cls-46" d="M4,46.46a1.33,1.33,0,0,1-1.26-.84,1.59,1.59,0,0,1-.14-2.54L13.72,31.93a6,6,0,0,0,0-8.41L2.57,12.37a1.59,1.59,0,0,1,.14-2.54A1.33,1.33,0,0,1,4,9a2,2,0,0,1,1.4.58L22.13,26.32a2,2,0,0,1,0,2.8L5.37,45.88A2,2,0,0,1,4,46.46Z"/><path class="cls-47" d="M4,46.41a1.35,1.35,0,0,1-1.29-.86,1.55,1.55,0,0,1-.08-2.44L13.75,32a6,6,0,0,0,0-8.47L2.6,12.34a1.56,1.56,0,0,1,.08-2.45A1.35,1.35,0,0,1,4,9a2,2,0,0,1,1.37.57L22.09,26.36a1.92,1.92,0,0,1,0,2.73L5.34,45.85A2,2,0,0,1,4,46.41Z"/><path class="cls-48" d="M4,46.37a1.36,1.36,0,0,1-1.31-.88,1.52,1.52,0,0,1,0-2.35L13.79,32a6,6,0,0,0,0-8.53L2.63,12.3a1.51,1.51,0,0,1,0-2.34A1.35,1.35,0,0,1,4,9.08a1.88,1.88,0,0,1,1.33.55L22.06,26.39a1.88,1.88,0,0,1,0,2.67L5.3,45.81A1.85,1.85,0,0,1,4,46.37Z"/><path class="cls-49" d="M4,46.32a1.4,1.4,0,0,1-1.34-.9,1.48,1.48,0,0,1,0-2.24L13.82,32a6.09,6.09,0,0,0,0-8.6L2.67,12.27a1.49,1.49,0,0,1,0-2.25A1.39,1.39,0,0,1,4,9.13a1.82,1.82,0,0,1,1.3.54L22,26.42A1.85,1.85,0,0,1,22,29L5.27,45.78A1.82,1.82,0,0,1,4,46.32Z"/><path class="cls-50" d="M4,46.28a1.43,1.43,0,0,1-1.37-.92,1.48,1.48,0,0,1,.1-2.15L13.85,32.06a6.14,6.14,0,0,0,0-8.67L2.7,12.24a1.48,1.48,0,0,1-.1-2.15A1.42,1.42,0,0,1,4,9.17a1.8,1.8,0,0,1,1.27.53L22,26.45A1.8,1.8,0,0,1,22,29L5.24,45.75A1.79,1.79,0,0,1,4,46.28Z"/><path class="cls-51" d="M4,46.23a1.45,1.45,0,0,1-1.4-.94,1.47,1.47,0,0,1,.16-2L13.88,32.09a6.17,6.17,0,0,0,0-8.73L2.73,12.21a1.47,1.47,0,0,1-.16-2.05A1.44,1.44,0,0,1,4,9.22a1.8,1.8,0,0,1,1.24.51L22,26.49A1.73,1.73,0,0,1,22,29L5.21,45.72A1.74,1.74,0,0,1,4,46.23Z"/><path class="cls-52" d="M4,46.18a1.59,1.59,0,0,1-1.43-1,1.55,1.55,0,0,1,.22-2L13.92,32.12a6.23,6.23,0,0,0,0-8.79L2.76,12.17a1.54,1.54,0,0,1-.22-1.95A1.59,1.59,0,0,1,4,9.26a1.72,1.72,0,0,1,1.2.5L21.93,26.52a1.7,1.7,0,0,1,0,2.41L5.17,45.68A1.66,1.66,0,0,1,4,46.18Z"/><path class="cls-53" d="M4,46.14a1.59,1.59,0,0,1-1.46-1,1.53,1.53,0,0,1,.29-1.85L14,32.15a6.28,6.28,0,0,0,0-8.86L2.8,12.14a1.53,1.53,0,0,1-.29-1.85A1.59,1.59,0,0,1,4,9.31a1.66,1.66,0,0,1,1.17.49L21.9,26.55a1.66,1.66,0,0,1,0,2.35L5.14,45.65A1.66,1.66,0,0,1,4,46.14Z"/><path class="cls-54" d="M4,46.09a1.61,1.61,0,0,1-1.14-2.75L14,32.19a6.33,6.33,0,0,0,0-8.93L2.83,12.11A1.61,1.61,0,0,1,4,9.36a1.63,1.63,0,0,1,1.14.47L21.87,26.58a1.61,1.61,0,0,1,0,2.28L5.11,45.62A1.63,1.63,0,0,1,4,46.09Z"/></g><path class="cls-55" d="M23.53,23.52,6.77,40.27A3.93,3.93,0,0,1,4,41.43H4a4,4,0,0,1-2.8-6.76L12.32,23.52a4,4,0,0,0,0-5.6L1.17,6.76A4,4,0,0,1,4,0H4a4,4,0,0,1,2.8,1.16L23.53,17.91A4,4,0,0,1,23.53,23.52Z"/><path class="cls-55" d="M41.11,23.52,24.36,40.27a4,4,0,0,1-2.81,1.16h0a4,4,0,0,1-2.8-6.76L29.91,23.52a4,4,0,0,0,0-5.6L18.75,6.76A4,4,0,0,1,21.55,0h0a4,4,0,0,1,2.81,1.16L41.11,17.91A4,4,0,0,1,41.11,23.52Z"/></g></g></g></svg>